<?xml version="1.0" standalone="no"?>
<!DOCTYPE svg PUBLIC "-//W3C//DTD SVG 20010904//EN"
 "http://www.w3.org/TR/2001/REC-SVG-20010904/DTD/svg10.dtd">
<svg version="1.0" xmlns="http://www.w3.org/2000/svg"
 width="307.000000pt" height="307.000000pt" viewBox="0 0 307.000000 307.000000"
 preserveAspectRatio="xMidYMid meet">
<metadata>
Created by potrace 1.11, written by Peter Selinger 2001-2013
</metadata>
<g transform="translate(0.000000,307.000000) scale(0.100000,-0.100000)"
fill="#000000" stroke="none">
<path d="M295 1907 l-220 -132 -3 -241 -2 -242 221 -131 c121 -72 229 -131
239 -131 41 0 121 46 272 156 l158 116 0 188 c0 173 -12 290 -30 290 -17 0
-30 -125 -30 -279 l0 -166 -132 -95 c-73 -52 -157 -119 -185 -149 l-53 -54 0
76 0 75 -160 93 -159 94 -1 158 0 158 42 -25 c287 -164 264 -157 337 -97 l34
28 -154 82 c-85 45 -157 86 -161 89 -7 7 183 132 201 132 6 0 74 -38 152 -85
78 -47 145 -87 150 -88 9 -2 119 65 119 73 -1 5 -403 240 -411 240 -2 -1 -103
-60 -224 -133z"/>
<path d="M2757 1904 c-4 -4 -7 -52 -7 -106 l0 -99 -46 -19 c-41 -18 -48 -19
-67 -5 -31 22 -113 19 -163 -5 -48 -24 -83 -70 -117 -154 l-24 -58 -6 62 c-4
35 -7 127 -7 205 0 114 -3 145 -15 155 -8 7 -22 10 -30 6 -13 -5 -15 -45 -15
-291 l0 -286 23 3 c13 2 33 21 52 50 17 26 55 86 85 134 57 91 115 144 157
144 23 0 23 -2 23 -98 0 -55 3 -134 7 -176 6 -76 6 -77 32 -74 l26 3 -3 156
-2 156 37 6 c20 4 38 5 39 4 1 -1 7 -74 14 -162 6 -88 15 -164 20 -168 4 -5
16 -7 26 -5 17 3 19 13 17 108 -2 58 -5 139 -9 181 l-5 77 80 27 c63 21 81 31
81 45 0 28 -11 30 -71 15 -94 -26 -92 -28 -83 75 4 61 3 90 -4 90 -6 0 -17 2
-24 5 -8 3 -17 2 -21 -1z"/>
<path d="M1697 1883 c-12 -11 -7 -41 7 -46 8 -3 22 0 32 8 15 11 16 15 5 29
-14 17 -33 21 -44 9z"/>
<path d="M1168 1788 c-2 -7 -1 -56 3 -108 4 -52 8 -152 8 -222 1 -69 4 -133 7
-142 4 -11 19 -16 49 -16 46 0 107 19 235 75 47 20 108 42 135 49 38 10 51 18
53 35 5 32 -19 28 -175 -30 -76 -28 -157 -57 -180 -64 l-41 -14 -6 72 c-3 40
-9 140 -13 222 l-8 150 -31 3 c-19 2 -33 -2 -36 -10z"/>
<path d="M1703 1734 c-10 -27 3 -424 15 -436 6 -6 18 -8 26 -5 14 6 16 36 16
232 l0 225 -25 0 c-14 0 -28 -7 -32 -16z"/>
<path d="M2015 1721 c-95 -43 -220 -239 -201 -314 9 -37 44 -67 78 -67 45 0
112 73 169 183 l46 89 6 -99 c10 -145 8 -313 -3 -354 -24 -85 -90 -142 -182
-154 -62 -9 -64 -31 -4 -40 92 -14 163 26 213 121 67 126 73 184 48 436 -20
197 -19 194 -56 207 -44 15 -67 14 -114 -8z m65 -45 c0 -23 -101 -195 -141
-239 -25 -28 -40 -39 -52 -34 -56 21 42 220 132 267 44 23 61 25 61 6z"/>
<path d="M710 1535 c-29 -30 -29 -44 -4 -202 3 -24 10 -33 24 -33 27 0 34 16
42 95 4 39 10 85 13 103 13 60 -32 82 -75 37z"/>
</g>
</svg>
